<svg width="50" height="49" viewBox="0 0 50 49" fill="none" xmlns="http://www.w3.org/2000/svg">
<ellipse cx="25" cy="24.5" rx="25" ry="24.5" fill="#282C3F"/>
<path d="M25 10L39 17.6098V32.6829L25 40L11 32.6829V17.6098L25 10Z" fill="#282C3F"/>
<path d="M10.5 18L24.5 24.5M10.5 18L24.5 10L38.5 17.5M10.5 18V33L24.5 39.5M24.5 24.5V39.5M24.5 24.5L31 21.25M38.5 17.5L31 21.25M38.5 17.5V29M24.5 39.5L30 36.5M31 21.25L17.5 14" stroke="white"/>
<circle cx="39" cy="38" r="8.5" fill="#03A685" stroke="white"/>
<path d="M33 38L37 42L44.5 34.5" stroke="white" stroke-width="2"/>
</svg>
