<?xml version="1.0" encoding="utf-8"?>
<!-- Generator: Adobe Illustrator 22.1.0, SVG Export Plug-In . SVG Version: 6.00 Build 0)  -->
<svg version="1.1" id="Layer_1" xmlns="http://www.w3.org/2000/svg" xmlns:xlink="http://www.w3.org/1999/xlink" x="0px" y="0px"
	 viewBox="0 0 810 640" style="enable-background:new 0 0 810 640;" xml:space="preserve">
<style type="text/css">
	.st0{fill:#7BC0FC;}
	.st1{fill:#B9E1FA;}
	.st2{fill:#ECF1F7;}
	.st3{fill:#F5FAFE;}
	.st4{fill:#C4DAFA;}
	.st5{fill:#BCE6F8;}
	.st6{fill:#94C9F5;}
	.st7{fill:#F7B2BB;}
	.st8{fill:#E3313B;}
	.st9{fill:#F6FAFA;}
	.st10{fill:#3A97EE;}
	.st11{fill:#FAC11D;}
	.st12{fill:#6B8CB8;}
	.st13{fill:#DE4753;}
	.st14{fill:#4AB2F6;}
	.st15{fill:#FEFEFE;}
</style>
<path class="st0" d="M269.1,378.8c0.3-1,0.8-1.9,1.6-2.5c2.6-2.4,4.2-5.6,6-8.6c5.6-8.9,11.8-17.3,16.9-26.4c0.5-0.8,1-1.5,1.6-2.3
	c0.9-0.5,1.4-1.3,1.5-2.3c0,0,0,0,0,0c0.9-0.5,1.5-1.2,1.5-2.3c0.5-0.8,1-1.6,1.6-2.3c0.9-0.5,1.5-1.2,1.4-2.2
	c0.5-0.8,1.1-1.6,1.6-2.4c1.8-2,3.4-4.2,4.4-6.8c0.1-0.2,0.2-0.4,0.2-0.6c6.4-8.5,12-17.5,17.6-26.5c3.5-5.5,7.3-9.8,14.3-10.5
	c2-0.2,4.3-0.2,6.2-1.4c4.1-0.8,8.1-1.7,12.2-2.5c1.9,0.1,3.7-0.5,5.4-1.3c0.3,0,0.5,0,0.8-0.1c2.4,0.1,4.8-0.1,6.9-1.5
	c0.3,0,0.5-0.1,0.8-0.1c2.2,0.1,4.2-0.5,6.1-1.4c0.8-0.1,1.5-0.2,2.3-0.2c3.8-0.7,7.7-1.2,11.5-2.3c3.1-0.9,6.7,0,9.2-2.8
	c5.2,0.3,10.1-1.6,15.2-2.5c2.1-0.2,4.2-0.4,6.1-1.4c0.3,0,0.5,0,0.8-0.1c2.4,0.2,4.7-0.4,6.9-1.5c0.5,0,1,0,1.5-0.1
	c1,0,2,0,3.1,0.1c0.2,0.1,0.4,0.1,0.7,0.1c4,2.7,6.1,6.5,7,11.2c1.2,6.4,2.6,12.8,4,19.3c1.8,8.4,3.6,16.8,5.3,25.2
	c0.2,0.3,0.4,0.6,0.6,0.9l0,0c3,14.4,5.7,28.8,9.1,43.1c1.2,5,0.2,8.9-2.4,12.9c-5.3,8.1-10.6,16.1-15.9,24.2
	c-6.3,9.3-12.8,18.5-18.3,28.4c-0.6,0.8-1.3,1.5-1.9,2.4c-15.1,23.1-30.2,46.3-45.2,69.5c-4.5,6.9-9.5,13.4-13.3,20.7
	c-2.2,2.1-3.6,4.8-5.2,7.4c-5.1,8-10.1,12.3-20.8,4.7c-6-4.2-12.2-8-18.4-12c-0.2-0.1-0.4-0.2-0.7-0.2c-0.5-0.2-0.9-0.4-1.4-0.7
	c-0.6-0.9-1.3-1.5-2.4-1.6c-0.5-0.8-1.2-1.3-2.2-1.4c-1.3-1-2.6-2.1-3.9-3c-14-9.2-28-18.4-42-27.5c-11.5-7.5-23-14.8-34.5-22.3
	c-1.2-0.9-2.4-1.8-3.7-2.6c-5.9-4.2-7.3-10.6-3.4-16.6c8.3-12.7,16.7-25.4,24.9-38.1C256.7,398.2,263.5,388.9,269.1,378.8z
	 M349.9,449.2c26.1,1.6,50.1-22.2,50.3-49.2c0.1-28.7-23.1-51.1-50.5-51c-27.9,0.1-49.9,23.3-50,50.5
	C299.7,426.5,323.2,450.4,349.9,449.2z M418.7,307c7.9,0.2,12.2-5.5,12.4-12.1c0.2-6.7-5.5-11.8-12.4-11.7
	c-6.7,0-11.8,5.1-11.8,11.8C406.8,302,411.7,307,418.7,307z"/>
<path class="st1" d="M442.8,400.9c5.3-8.1,10.6-16.1,15.9-24.2c2.6-3.9,3.6-7.9,2.4-12.9c-3.4-14.3-6.1-28.7-9.1-43.1
	c2.5-4.8,3.2-10.1,5.3-15.1c0.4-1,0.7-1.8,1.9-1.9c5.7,2.3,11.5,2.7,17.2,0.1c1.1,1.9,3,1.4,4.7,1.5c0,0,0,0,0,0
	c0.3,0.2,0.5,0.4,0.8,0.7c0.5,0,1,0.1,1.5,0.1c0.6,0.9,1.5,0.7,2.3,0.7c5.6,1.6,11,3.8,16.8,4.6c1.1,1.1,2.4,1.6,3.9,1.5
	c0.3,0,0.5,0,0.8,0c3.4,1.6,6.9,3,10.7,3.1c5.7,2.6,11.9,3.6,17.9,5.2c2.3,0.6,4.3,1.9,6.6,2.4c1.3,1.8,2.6,3.6,3.9,5.4
	c0.2,0.3,0.5,0.5,0.7,0.8c0,0.2,0,0.5,0.1,0.7c0.2,0.3,0.5,0.5,0.7,0.8c0,0.3,0.1,0.5,0.1,0.8c0.2,0.3,0.5,0.5,0.7,0.8
	c0.8,1.7,1.6,3.4,2.6,5c3.6,5.9,5.9,12.6,10.4,17.9c0.3,0.7,0.5,1.5,0.8,2.2c1,1.8,1.6,3.8,3,5.4c3.7,6.9,7.4,13.8,11.1,20.7
	c3.2,6,6.3,12,10.2,17.6c0.3,3,2.1,5.4,3.9,7.6c0.5,1,1,2,1.5,3c1.9,3.7,3.1,7.7,6.1,10.7c0.1,1.5,1,2.6,1.7,3.8
	c0.2,0.2,0.4,0.5,0.7,0.7c0,0,0,0,0,0c0.2,0.3,0.5,0.5,0.7,0.8c0,0.2,0,0.5,0,0.7c5.1,9.4,10.2,18.7,15.1,28.1
	c3.2,6,1.7,10.2-4.4,13.5c-22,12-44.1,24-66,36.2c-5.4,3-11.2,5.3-16,9.3c-3.3,1.6-6.6,3.1-9.9,4.7c-5.8,2.5-10.1,1.2-13.1-4.2
	c-3.6-6.4-7-12.9-10.5-19.4c-6.6-12-13.2-23.9-19.8-35.9c-3.5-6.4-6.8-13-10.2-19.4c-0.2-0.2-0.5-0.5-0.7-0.7l-0.1-0.1
	c-0.2-0.3-0.5-0.5-0.7-0.8l0,0c-4.1-9.2-9.5-17.8-14.3-26.7C448.3,409.6,446.4,404.7,442.8,400.9z M520.3,441.6
	c16.1,1,29.6-12.9,29.6-28.7c-0.1-15.4-13-28.6-28.2-28.7c-16.3-0.1-28.7,12.1-29.3,27.8C491.8,428.6,506.8,442.4,520.3,441.6z
	 M483.4,326.2c0-5.9-3.8-10.1-9.5-10c-4.5,0.1-9.3,2.8-9.6,10c-0.2,4.9,4.2,9,9.7,9C479.7,335.3,483.4,331.7,483.4,326.2z"/>
<path class="st2" d="M269.1,378.8c-5.6,10.1-12.4,19.4-18.6,29c-8.2,12.8-16.7,25.4-24.9,38.1c-3.9,6-2.6,12.4,3.4,16.6
	c1.2,0.9,2.5,1.8,3.7,2.6c-1.1,0.3-2.2,0.5-3.3,0.9c-13.5,5.3-27.5,7.8-42,7.5c-3.1-0.1-6-0.7-9.1-0.9c-8.3-0.5-16.6-1.4-24.9-2.5
	c-9.3-1.2-18.5-3.2-27.9-2.8c0.3-9.5-0.8-18.9-2.8-28.2c-1-4.4-2.3-8.7-3.3-13.1c2.2-1.1,2.7-3.4,3.8-5.3c9.7-12,19.2-24.3,33-32
	c8.6-4.8,17.8-7.4,27.5-7.7c14.7-0.5,29.4,1.3,44.2,0.7c12.1-0.4,24.3-0.8,36.3-3C265.8,378.7,267.5,378.9,269.1,378.8z"/>
<path class="st3" d="M125.5,467.6c9.4-0.4,18.6,1.6,27.9,2.8c8.3,1,16.6,1.9,24.9,2.5c3,0.2,6,0.9,9.1,0.9c14.5,0.2,28.5-2.2,42-7.5
	c1.1-0.4,2.2-0.6,3.3-0.9c11.5,7.4,23,14.8,34.5,22.3c14,9.1,28,18.3,42,27.5c1.4,0.9,2.6,2,3.9,3c-2.7,0-5.3,0.1-8,0.1
	c-100.6,0-201.3,0-301.9,0c0.9-5,3.9-8.9,7.3-12.1c8.5-7.8,19.1-11.1,30.3-12.5c3.3,3.4,6.9,6.2,12,6.3c3.7,2.4,7.6,1.6,11.5,0.6
	c5.9-1.3,10.6-4.2,13-10c3.2,2.8,7,4.4,11.1,5.4c5.4,1.4,10.9,1.7,16.5,0.9c8.1-1.2,14.8-4.2,18-12.4
	C124.9,478.9,125.7,473.3,125.5,467.6z"/>
<path class="st3" d="M468.9,444.2c2.9,6.7,5.8,13.5,8.8,20.1c5.6,12.4,11.4,24.8,17,37.2c3.1,6.7,6,13.4,9.1,20.1
	c2.6,5.6,6.8,7.3,12.8,5.2c-0.1,0.7-0.1,1.5-0.2,2.2c-17-1.8-34.1-3.9-51.1-5.3c-34.8-2.8-69.6-5.3-104.3-7.9
	c4.4-7,9.9-13.1,14.8-19.7c16.7-22,33.5-44,50.2-65.9c0.6-0.8,1.4-1.5,2-2.2c1.9,1,3.6,2.2,5.7,2.9c5.5,1.9,10.7,4.3,16.2,6.1
	c5.8,1.9,11.5,4.3,17.6,5.5c0,0,0,0,0,0c0.2,0.3,0.4,0.5,0.7,0.8c0,0,0,0.1,0,0.1C468.5,443.7,468.7,444,468.9,444.2z"/>
<path class="st3" d="M530,516.5c4.8-4,10.6-6.4,16-9.3c21.9-12.2,44-24.1,66-36.2c6.1-3.3,7.5-7.5,4.4-13.5
	c-5-9.4-10.1-18.7-15.1-28.1c3.5,0.1,6.4,1.3,7.6,4.8c0.6,1.7,2.2,1,3,1.8c1,0.9,2.5,1.2,3.1,2.6c3.4,5.6,7.6,10.6,12.3,15.1
	c6.5,6.3,14.6,9.4,23.1,10.7c9.2,1.4,18.7,1.2,28,1.8c-0.1,1.6,0.3,3,0.9,4.4c1.6,4,0.6,7.6-2,10.7c-2.3,2.7-4.3,5.6-5.7,8.8
	c-0.2-0.7,0.1-1.8-0.7-2c-1.1-0.2-1,0.9-0.9,1.6c0.2,1.9-0.7,4.1,0.9,6.3c1-1.8,0.5-3.3,0.7-4.7c2.5,6.1,7.9,8.1,13.7,9.3
	c1.9,2.1,9.6,2.1,11.3-0.1l0.1,0c0.3-0.2,0.6-0.4,0.8-0.6c5-0.6,8.1-3.7,10.6-7.8c1.3,0.1,2.4,0.2,3.6,0.9
	c6.2,3.1,12.7,4.8,19.7,4.6c4.6-0.1,8.9-1.8,13.4-2.4c0.5,0.8,1.2,0.8,2,0.9c7.6,1.4,15.1,3.1,21.8,7c6,3.5,12,7.2,13,15.1
	c-80.9,0-161.9,0-242.8,0C535.7,518,532.7,518.2,530,516.5z"/>
<path class="st2" d="M546,149.5c4.1-0.7,8.8,0.7,13.7,0.8c12.9,0.3,22-6.4,29.6-15.9c7.2-9,12.8-19.3,21.6-27
	c5.7-5,12.2-8.4,20.2-8.5c6.4-0.1,12.7,0.1,18.5,3.1c5,2.5,8.8,6.3,11.3,11.4c2.5,5.3,4.7,10.7,7.5,15.8c4.4,8,11.8,11.5,20.5,12.6
	c12.5,1.5,25.4,0.8,37.6,4.6c6.2,2,12.1,4.7,15.7,10.6c2,3.3,1.6,3.9-2.2,3.9c-10.5,0-21,0-31.5,0c-58.6,0-117.2,0-175.8,0
	c-2.9,0-5.8-0.3-8.7,0.5c-2.3,0.6-3.2-0.5-2.6-3c1.1-4.6,4.6-7.2,11.1-8.2C536.6,149.5,540.9,149.4,546,149.5z"/>
<path class="st4" d="M364.1,521.8c34.9,0,69.8-0.1,104.6,0.1c17.1,0.1,34.3,0.9,51.4,1.4c0.8,0,1.5,0,2.3,0c0.4,0.6,0.9,0.7,1.6,0.6
	c11.8-0.3,23.5,1.2,35.3,1.8c13.8,0.8,27.6,2.4,41.1,5.2c1.3,1.2,3.9,1.1,3.8,3.7c-1.7,0.1-2.7,2-4.5,1.6c-2.1-0.2-4.1,0.1-6.1,0.8
	c-2.3,0.2-4.6,0.5-6.9,0.7c-7.1,0.3-14.2,0.5-21.3,0.8c-0.6,0-1.1,0.4-1.7,0.6c-67.7,0-135.3,0.1-203,0.1c-1.9,0-3.8,0-5.7,0.1
	c-1,0-2.1,0-3.1,0c-34.4-0.3-68.8,0.5-103.2-0.9c-0.9-1.1-2-0.7-3.1-0.6c-4.1-0.1-8.1-0.2-12.2-0.2c-2.5-1-5.1-1.3-7.7-1.4
	c-2.2-0.2-5.4,0.3-5.8-2.4c-0.4-3.2,3.2-2.4,5.1-3.3c1.3-0.6,3-0.4,4.5-0.6c6.4-1,12.8-2,19.1-3c1.3,0,2.5-0.1,3.8-0.1
	c2.6,0.5,5.1-1,7.7-0.8c17.8-1.5,35.7-2.6,53.5-3.1c0.5,0,1,0,1.5,0c1.3-0.2,2.6-0.4,3.8-0.6c0.3-0.3,0.5-0.5,0.8-0.8
	c6.1,4,12.4,7.8,18.4,12c10.7,7.6,15.7,3.3,20.8-4.7C360.5,526.7,361.9,524,364.1,521.8z"/>
<path class="st5" d="M125.5,467.6c0.1,5.7-0.6,11.4-2.7,16.7c-3.2,8.2-9.9,11.2-18,12.4c-5.6,0.8-11,0.5-16.5-0.9
	c-4.1-1-7.9-2.6-11.1-5.4c1.3-6,1.9-12.1,1.6-18.2c4.5-4.2,6.8-9.7,5.1-15.5c-1.6-5.8-0.9-11.6-1.3-17.3c-0.1-1.6,1.2-3.1,0.1-4.7
	c-0.2-2,1.4-3.5,1.6-5.3c1-0.8,0.6-2,0.8-3c1.1-0.7,0.2-2.4,1.4-3.1c1.3-1.3,1.9-2.9,2.4-4.6c2.2-1.6,2-4.8,4.5-6.2
	c1,0,1.5-0.5,1.6-1.5c0,0,0,0,0,0c1.1,0,1.8-0.6,2.3-1.6c0,0,0,0,0,0c0.6-0.1,1.3-0.1,1.9-0.3c5.9-2.6,9.3-1.7,13.2,3.3
	c1.4,1.8,2.1,4,4,5.4c0.3,1,0.5,2,0.8,3c0.8,1.8,1.5,3.6,2.3,5.3c1,4.4,2.3,8.7,3.3,13.1C124.7,448.7,125.8,458,125.5,467.6z"/>
<path class="st5" d="M744.9,495c-4.5,0.6-8.7,2.3-13.4,2.4c-7,0.2-13.6-1.5-19.7-4.6c-1.2-0.6-2.4-0.8-3.6-0.9
	c2.2-6.5,1.4-13.2,1.6-19.8c4.5-2.8,6.2-7,6-12c-0.1-2.4,0-5.1-2.9-6.3c0.2-1,0.5-2,0.7-3c0-0.3,0-0.5,0-0.8c0-4.6,0-9.2,0.8-13.8
	c0.8-0.6,0.6-1.6,0.8-2.4c2.9-10.7,6.3-21.1,18.3-25.2c0.5,0,1.1,0,1.6,0c0.8,0,1.5,0,2.3,0.1c0.8,0.3,1.5,0.5,2.3,0.8
	c1.8,1.8,3.5,3.6,5.3,5.4c1.8,3.8,3.6,7.6,5.3,11.5c0.1,1.7,0.5,3.3,1.6,4.6c0.8,3.6,1.6,7.1,2.4,10.7c-0.2,2.7,0.5,5.2,1.5,7.7
	c0,1.5,0.1,3,0.1,4.6c0.1,1.5-0.6,3.2,0.7,4.6c0,0.8,0,1.5,0,2.3c0,3.8,0,7.6,0,11.4c0,0.5,0,1,0,1.6c-0.6,0.3-0.7,0.9-0.7,1.5
	c-0.2,6-2,11.3-6.1,15.9C748.2,492.7,745.7,492.8,744.9,495z"/>
<path class="st6" d="M78.8,472.2c0.3,6.1-0.3,12.2-1.6,18.2c-2.4,5.8-7.1,8.7-13,10c-1.5-0.1-3.3,0.4-2.9-2.2
	c1.8-10.3,1.2-20.6,1.4-31c0.1-5.5-1.5-10.9-1.2-16.4c-0.4,4.8-0.4,9.6-0.4,14.4c0,9,0.1,18.1,0,27.1c-0.1,8.4-0.8,8.9-8.4,7.4
	c-5.1-0.1-8.6-3-12-6.3c-1.1-4.5,0.8-7.9,3.7-11c3-3.4,5-7.1,3.1-11.8c-1-6.7-0.3-13.3,0.7-19.9c1-1.7,0.9-3.9,2.3-5.3
	c1.5-2.3,3-4.6,4.5-6.9c0.3-0.5,0.7-1,1-1.5c0,0,0.3,0,0.3,0l0.3-0.1c0.5-0.3,1-0.6,1.5-0.9c0.3-0.2,0.5-0.4,0.8-0.6l0.1,0.1
	c6.8-0.4,9.4,1.1,12.1,6.8c4.1,8.7,6.1,18,7,27.5C78.1,470.7,77.9,471.5,78.8,472.2L78.8,472.2z M55.9,472.1c0-0.1-0.1-0.2-0.1-0.3
	c0,0-0.1,0-0.2-0.1C55.7,471.9,55.8,472,55.9,472.1c0.3,0.3,0.5,0.5,0.8,0.8c0,1,0.5,1.5,1.5,1.5c0.3,0.3,0.5,0.5,0.8,0.8
	c0.3,0.2,0.5,0.4,0.8,0.6c0.1-0.1,0.1-0.2,0.2-0.3c-0.3-0.1-0.7-0.2-1-0.3c-0.3-0.3-0.5-0.5-0.8-0.8c-0.3-0.7-0.8-1.2-1.5-1.5
	C56.4,472.7,56.2,472.4,55.9,472.1z M54.7,470.1c0.1,0,0.2-0.1,0.2-0.1c0-0.1,0-0.2,0-0.3c-0.1,0.1-0.2,0.1-0.4,0.2
	C54.6,470,54.7,470.1,54.7,470.1z"/>
<path class="st6" d="M709.8,472.1c-0.2,6.6,0.6,13.4-1.6,19.8c-2.5,4-5.6,7.2-10.6,7.8c-0.3,0.2-0.6,0.4-0.8,0.6c0,0-0.1,0-0.1,0
	c-3.2,0.6-4.1-0.9-3.7-3.8c0.2-1.6,0.7-3.2,0.7-4.9c0.1-12.8,0-25.7,0-38.5c0-0.7,0.4-1.9-1.2-2c-1,2.4,0.6,4.7,0.5,7.1
	c-0.3,4.2,0.3,8.4-0.2,12.6c-0.4,3.9-0.1,7.8,0.1,11.7c0.3,4.2-0.6,8.3-0.7,12.5c-0.2,5.5,1,5.4-5.3,5.3c-0.5,0-1,0-1.5,0
	c-5.9-1.2-11.2-3.3-13.7-9.3c0-0.4,0-0.8,0-1.2c1.4-3.2,3.4-6.1,5.7-8.8c2.6-3.1,3.5-6.7,2-10.7c-0.6-1.4-1-2.9-0.9-4.4
	c-0.2-4.7,0.5-9.2,1.6-13.8c0.6-0.9,0.9-1.9,0.8-3c0.6-0.4,0.7-1,0.7-1.6c0.3-0.5,0.5-1,0.8-1.6c3.2-5.3,6.4-10.4,13.7-10.2
	c0.5,0.1,1.1,0.3,1.6,0.4c2.6,2.4,4.3,5.4,6.1,8.4c0,0.6,0.1,1.2,0.7,1.6c0.3,1.6,0.6,3.2,1.6,4.5c0.1,0.5,0.1,1,0.2,1.6
	c0.2,0.3,0.4,0.5,0.6,0.8c0,0.2,0,0.5,0.1,0.7C708.1,459.8,709.2,465.9,709.8,472.1z"/>
<path class="st2" d="M744.9,495c0.8-2.2,3.4-2.3,4.8-4c4-4.6,5.9-9.9,6.1-15.9c1-0.1,1.8-0.4,0.7-1.5c0-0.5,0-1,0-1.6
	c1.5-3.5,0.4-7.1,0.7-10.7c5.8-0.1,8.1,4.6,10.9,8.3c5.4,7.2,13.1,11.9,20,17.4c6.7,5.4,14.1,10,19.3,17.1c2.2,3,3.6,6.4,5,9.8
	c1.2,2.9,0.7,4.1-2.8,4.1c-9.3-0.2-18.6-0.1-27.9-0.1c-1-7.9-7-11.7-13-15.1c-6.7-3.9-14.2-5.6-21.8-7
	C746.1,495.8,745.3,495.8,744.9,495z"/>
<path class="st2" d="M103.5,416.7c1.6,4,0,7.2-2.6,10.1c-2.4,2.7-4.1,5.6-3.2,9.4c-9.6,1.2-18.6,4-25.9,10.7
	c-3,2.7-5.5,6.1-6.3,10.4c-3.3,0-6.5-0.1-9.8,0c-2.3,0.1-2.9-0.8-2.6-2.9c0.8-6.3,1.8-12.7,5.4-18.1c2.8-4.2,6.7-7.7,11-10.4
	c9.8-6.1,20.6-8.7,32-9.2C102.2,416.7,102.9,416.7,103.5,416.7z"/>
<path class="st7" d="M369.4,223.6c-0.8,0-1.7-0.1-2.3,0.7c-3.2,0.4-6.2,1-9.1,2.4c-0.5,0.1-1,0.1-1.6,0.2c-0.3,0.2-0.5,0.4-0.8,0.6
	c-4.1,1.1-8.1,2.1-12.2,3.2c-4.3,1.2-8.5,3-13,0.7c-1.5-0.5-3.1-1-4.6-1.6c-0.2-0.2-0.5-0.4-0.7-0.5c-0.8-0.1-1.6-0.2-2.3-0.3
	c-1.1-1.7-3.5-0.6-4.5-2.3c6.1,0.1,12.1-1.5,18.1-2.3c8.9-1.2,17.7-2.7,26.6-4c-12.5-0.2-25-0.2-37.4-0.2c-2.1,0-4.3-0.3-6.4,0.5
	c-2.7,0-5.3-0.1-8,0c-1.6,0-3-0.3-4-1.6c-3.4-4.3-6.9-8.7-10.4-13c4.8,0.5,9.7,1.1,14.5,1.6c0.3,0.2,0.5,0.3,0.8,0.5
	c1.3,0.1,2.6,0.2,3.8,0.3c0.9,1,2,0.7,3.1,0.7c2.3,0.3,4.6,0.6,6.9,0.9c1.4,1.2,3.1,0.6,4.6,0.7c1.5,0.2,3.1,0.5,4.6,0.7
	c2.5,1,5,0.8,7.6,0.9c1.1,1,2.5,0.5,3.8,0.7c0.4,0.5,0.9,0.7,1.6,0.5c1.3,0.1,2.5,0.2,3.8,0.2c0.6,0.6,1.3,0.6,2.1,0.7
	c8.2,1.2,16.5,2.5,24.7,3.7c1.5,0.1,2.9,0.1,4.4,0.2c-0.8,2.7-3.8,1.3-5.2,2.9c-0.5,0.1-1,0.1-1.5,0.2
	C374,222.1,371.7,222.8,369.4,223.6z"/>
<path class="st8" d="M476.4,304c-5.8,2.6-11.5,2.2-17.2-0.1c-0.6-0.5-1.1-1-1.7-1.5c-7-5.1-9.4-13-6.6-21.2
	c2.3-7,7.7-10.3,14.3-12.4c2,0,3.9,0,5.9,0c7.7,2.1,13,6.8,15.4,14.5c0.1,1.3,0.1,2.5,0.2,3.8c0.1,4.5-1.8,8.4-4.1,12.2c0,0,0,0,0,0
	C480.5,300.8,478.5,302.4,476.4,304z M478.1,284.9c0.2-1.9-0.9-3.5-2.7-4.7c-1.8-1.2-3.7-1-5.3,0.3c-1.5,1.2-2.5,1.1-4,0
	c-1.9-1.5-4.1-1.4-5.9,0.3c-1.9,1.6-2.5,3.7-1.7,6.2c1.6,4.6,5.3,7.3,8.9,10c0.3,0.2,1,0.3,1.4,0.2C472,296.3,478,288.6,478.1,284.9
	z"/>
<path class="st2" d="M679.9,452.3c-1.1,4.5-1.7,9.1-1.6,13.8c-9.4-0.5-18.8-0.4-28-1.8c-8.5-1.3-16.5-4.4-23.1-10.7
	c-4.8-4.6-8.9-9.5-12.3-15.1c6.1,3,12.3,6,18.9,8c9.8,2.9,19.7,4.1,29.8,5.1C669,452.1,674.4,452.2,679.9,452.3z"/>
<path class="st9" d="M345.7,281.7c-1.9,1.2-4.2,1.2-6.2,1.4c-7,0.6-10.9,4.9-14.3,10.5c-5.6,9-11.2,18.1-17.6,26.5
	c-0.3-3.5,0.7-7.1-1.4-10.4c-0.4-0.6-0.4-2.2,0-2.5c3-2.4,0.6-4.6,0.1-7c-0.4-2.2-0.9-3.6-3.5-3.2c-0.6,0.1-1.7,0-1.7-0.5
	c0.9-4.8-5.3-3-5.5-5.8c-0.3-3-1.1-5.5-2.5-8c-1-1.8-2.5-2.8-4.5-3.2c-3.2-0.8-3.7-2.6-1.6-4.9c1-1,0.3-2-0.1-3.1
	c-1-2.6-2.7-5.1-2.4-8.2c0.2-1.6,0.9-2.7,2.4-1.8c4.4,2.8,4,0.1,3-4c3.1,2.2,2.2,4.4,2.2,6.3c0,1.4-1.3,2.7,0.8,3.8
	c1.3,0.7-0.5,2.2-0.9,2.8c-1.6,2.2-0.7,3.6,0.9,5.1c-2.3,3,1,4.2,2,6.1c0.2,0.4,0.7,0.9,1.2,0.5c0.7-0.4,0.7-1,0.3-1.6
	c-1-1.6-2-3.2-2.9-4.8c1.8-0.5,2.9-1,3.5,1.9c0.5,2.1,2.3,5,4.6,5.8c4.1,1.5,3.9,4.7,4,7.9c-1.3-1.5-2.7-3-4.1-4.4
	c-0.3-0.3-0.9-0.4-1.3-0.5c-0.2,0-0.5,0.6-0.5,0.9c-0.1,1.7,3.8,4.5,5.7,4.2c2.6,0.7,5.1,1.5,7.8,0.4c1.2-0.5,2.2,0.4,3.2,0.9
	c1.1,0.6,2.4,2.9,3.3,1.4c1-1.6,3-4.2,1.5-5.8c-2.4-2.6,0.4-4.9-0.4-7.4c-0.3-1,1.4-1,2.1-0.8c1.4,0.5,3.3,0,4,1.6
	c0.4,0.9-0.5,1.9-1.7,2.1c-0.9,0.2-2,0.4-1.4,1.6c0.4,1,1.6,0.9,2.3,0.4c1.6-1,3.6-1.7,3.9-3.9c0.3-2.1,1.1-2.5,3.2-2.1
	c2.7,0.5,5.6,0.2,8.4,0.1C343.3,280.1,344.7,280.4,345.7,281.7z M289.3,270.6c0.3-0.2,0.7-0.3,0.9-0.6c0.4-0.5-1.8-6.2-2.4-6.4
	c-0.3-0.1-0.9,0-1,0.2c-1.2,1.7,0.8,2.9,0.9,4.5C287.7,269.2,288,270.3,289.3,270.6z M315,299.9c-1.5-1.5-2.9-3.2-4.9-4.2
	c-0.2-0.1-0.9,0.2-0.9,0.4c-0.3,2.2,2,2.5,3,3.9c0.4,0.6,1.2,1,1.8,1.2C314.5,301.4,315.1,301,315,299.9z"/>
<path class="st10" d="M498.8,242.7c-0.1,0.3-0.1,0.5-0.2,0.8c-0.7,0.9-1.4,1.8-2.1,2.7c-4.2,5.6-12.2,7.2-18.5,3.7
	c-6.1-3.4-8.8-11.1-6.2-17.4c2.9-7.1,9.8-10.8,16.8-8.9C497.1,225.8,500.8,232.8,498.8,242.7z M492,240.4c-1.4-2.7-3.4-4.4-1.8-6.9
	c0.4-0.7-0.2-1.8-1-1.4c-2.7,1.5-4.7-0.2-7.2-1.3c-0.1,2.6,0.3,5.1-2.6,6.4c-0.8,0.4-0.8,1.5,0.2,1.6c3,0.4,3.8,2.7,4.9,5.4
	C486.3,241.5,488.3,239.7,492,240.4z"/>
<path class="st11" d="M524.5,266c-0.3,1.8,1.4,2.8,1.8,4.3c0.8,3.1,0.6,6.1-0.2,9.1c-1.2,0.7-0.3,2.3-1.4,3.1
	c-3.7,3.9-8.1,6.3-13.7,6c0,0,0,0,0,0c-0.4-0.3-0.8-0.7-1.2-0.8c-8.9-2.3-13.1-12.1-8.5-20.4c0.9-1.7,1.2-4,3.5-4.6
	c3.5-1.2,7-2.1,10.7-1.7c0.5,0,1,0.1,1.5,0.1c1.5,0.8,3,1.6,4.5,2.4c0.2,0.7,0.7,0.8,1.3,0.8C522.9,265.3,523.5,265.9,524.5,266z
	 M518.4,273.6c0.2-2.1-0.5-3-1.7-3.8c-1.3-0.8-2.5-0.4-3.5,0.4c-1,0.8-1.6,1.7-3.2,1.4c-1.1-0.2-2.2,0.3-2.7,1.5
	c-0.7,1.6-0.2,3.1,0.8,3.8c2,1.3,3.7,3.9,6.5,2.9C517.7,278.7,517.6,275.5,518.4,273.6z"/>
<path class="st9" d="M498.8,242.7c1.9-10-1.7-16.9-10.1-19.1c-7-1.9-13.9,1.8-16.8,8.9c-2.6,6.3,0.2,14,6.2,17.4
	c6.3,3.5,14.2,1.9,18.5-3.7c0.7-0.9,1.4-1.8,2.1-2.7c0.5,1.3,3.2,0.2,2.7,2c-0.6,1.9-0.3,4.4-2.4,5.7c-4.7,2.8-9.4,4.2-15.1,2.9
	c-2.7-0.6-5.9,0-8.9-0.2c-2.6-0.2-5.5,0.5-5.4-3.7c0-1.6-1.9-1.4-2.8-2.2c-0.8-0.8-2.1-1.4-1.5-2.7c0.8-1.5,1.3,0.3,2,0.4
	c1.4,0.2,1.8-0.8,1-1.5c-2.1-1.9-1.3-4.8-2.6-7c-0.3-0.5-0.7-1.1,0-1.7c2.3-2,2.2-10.6-0.4-13.6c2.2-0.6,4.5,0.3,6.4-1.1
	c0.7-0.5,1.6,0.3,1.8,1.4c0.1,1.2,0.6,2.3,2.1,2.2c1.1-0.1,1.8-0.9,2.2-1.9c1.4-2.6,6.4-5.1,9-3.9c2.6,1.1,5.3,1.1,8,1.4
	c0.5,0,1.2-0.1,1.5,0.2c2.2,2.5,5.5,3,8.2,4.5c1.9,1,1.2,2.2-0.1,2.7c-3.2,1.1-2.6,3.3-2.8,6C501.2,236.3,503.4,240.6,498.8,242.7z
	 M472,251.8c0.3-0.4,0.5-0.7,0.5-1c0-0.5-0.3-0.9-0.9-0.7c-0.2,0.1-0.4,0.6-0.3,0.9C471.3,251.2,471.7,251.4,472,251.8z"/>
<path class="st9" d="M55.1,438.5c-1.5,2.3-3,4.6-4.5,6.9c-2.2-5.3,0.2-9.8,2.5-14.4c1.3-2.6,3.6-2.5,5.9-2.5c2.3,0,4,0.8,4,3.3
	c1.4,0.2,1.7-0.7,1.8-1.4c0.4-2.6,2.6-3.5,4.5-3.2c2.6,0.3,2.7,3.4,3.3,5.3c0.7,2.2,0.1,4.8,3.8,3.8c0.7-0.2,1.4,0.6,1.5,1.4
	c0.2,0.7-0.2,1.2-0.8,1.5c-0.7,0.4-1.4,0.7-2,1.2c-0.7,0.5-0.8,1.2-0.4,2c0.3,0.6,1,1.4,1.3,1c1.4-2,5.2-1.4,5.1-4.9
	c0-1.5-0.3-3.1,1.5-4c1.2,1.6-0.2,3.1-0.1,4.7c0.4,5.8-0.3,11.5,1.3,17.3c1.6,5.8-0.6,11.2-5.1,15.5c0,0,0-0.1,0-0.1
	c0.1-0.9,0.2-1.7-0.6-2.4c-0.9-9.5-2.9-18.8-7-27.5c-2.7-5.7-5.3-7.1-12.1-6.8c-0.2-0.7-0.4-1.7-1.4-1.5c-1.6,0.4-0.8,1.9-1,2.9
	l-0.3,0.1c0,0-0.3,0-0.3,0c-0.7,0-1.6-0.3-2,0.4C53.6,438.3,54.5,438.3,55.1,438.5z M57,432.9c0.6-0.3,1.5-0.4,1.7-1.3
	c0.1-0.7-0.4-1.2-1.1-1.2c-0.9,0-1.1,0.9-1.3,1.6C56,432.5,56.4,432.9,57,432.9z"/>
<path class="st9" d="M465.2,268.8c-6.6,2-12,5.4-14.3,12.4c-2.8,8.2-0.3,16.1,6.6,21.2c0.6,0.4,1.1,1,1.7,1.5
	c-1.2,0-1.5,0.8-1.9,1.9c-2,4.9-2.8,10.3-5.3,15.1c0,0,0,0,0,0c-0.2-0.3-0.4-0.6-0.6-0.9c-1.8-8.4-3.6-16.8-5.3-25.2
	c-1.4-6.4-2.8-12.8-4-19.3c-0.9-4.7-3-8.5-7-11.2c2.2-0.7,4.6-1.6,4.9,2.2c0,0.5,0.7,1.3,1.2,1.3c4.9,0.2,4.2,4.6,5.4,7.4
	c0.5,1.1,0.7,2.1,1.9,2.5c0.8,0.2,1.1-0.3,1.5-0.9c0.8-1.4-0.5-1.5-1.1-2.2c-1.1-1.2-0.8-2.5,1-2.6c1.7-0.1,2.9-0.4,3.2-2.4
	c0.1-0.7,0.9-0.7,1.6-0.7C458.1,268.8,461.6,268.8,465.2,268.8z"/>
<path class="st9" d="M525.9,206.2c2.4-0.6,3,0.4,3.5,2.9c0.9,5.1-2,8.9-3.8,13c-0.3,0.7-0.9,1.2-0.7,2.1c0.5,2.1-0.7,1.9-1.9,1.2
	c-0.9-0.5-2.2-1.5-2.7-0.8c-2.4,3-4.9,0.6-7.4,0.8c-4.2,0.3-6.8-2.3-9.4-4.5c-3.2-2.8-1.4-6.9-1.5-10.4c0-0.3,1.4-0.7,2.2-1.1
	c0.2-1.1-0.8-1.2-1.3-1.6c-0.7-0.5-1.4-0.9-0.7-1.8c0.5-0.7,1.1-1.7,2.1-1.1c0.8,0.5,1.5,1.1,2.1-0.2c0.5-1,0.7-1.8-0.3-2.7
	c-1.7-1.7-3.4-3.4,1.1-3.2c2.4,0.1,0.2-2.3,1-3.3c1.4-0.1,2.8,0.9,4.1-0.1c2-1.4,3.4-1.8,2.6,1.6c-0.2,1.1,0.8,1.1,1.5,1.1
	c0.9,0,2,0,1.6-1.4c-0.4-1.5,0.2-2.3,1.6-2.3c1.2,0,1.8,0.9,1.8,2.1c0,1.5,0.4,1.9,2.1,2.1c1,0.2,0.8,3.1,0.9,4.9
	c-0.9-0.6-1.8-1.3-2.8-1.9c-4-2.2-8.8-1.5-11.8,1.7c-3.2,3.5-3.7,8-1.2,11.9c2.5,3.9,7.2,5.6,11.6,4
	C525.5,217.8,527.4,213.3,525.9,206.2z"/>
<path class="st9" d="M318.3,226.6c1.1,1.7,3.5,0.6,4.5,2.3c-0.1,0.6-0.4,1.6-0.9,1.4c-3.5-1.2-7.2,0.4-10.6-0.9
	c-4.7-1.8-7.2-0.6-8.2,4.4c-0.4,1.9-1.1,1.7-2.5,1.5c-1.3-0.2-3.2-1-3.7,1.4v0c-1.4-0.1-2.5-0.8-2.7-2.2c-0.2-0.8,0.8-0.8,1.4-0.9
	c0.8,0.7,1.8,0.6,2.4-0.1c1.2-1.5,4.8-2.5,3.8-3.9c-1.5-2.1-3,1.5-4.8,1.8c-0.1-0.5-0.2-1.3-0.5-1.4c-5.5-2-0.7-5.8-1.4-8.7
	c-0.2-1,1.5-0.4,2.2,0.3c0.9,0.9,1.3,3.5,3.1,1.9c1.2-1.1,0.1-2.8-1.5-3.5c-1.4-0.7-1.1-1.7,0-2.2c2.5-1.1,1.4-3,0.9-4.5
	c-0.5-1.8-2-0.9-3.2-0.6c-0.8,0.2-1.9,0.3-1.8-0.7c0.2-1.7,0.2-3.4,0-5.1c-0.1-0.6,0.9-1.5,2-0.8c3.5,4.3,6.9,8.6,10.4,13
	c1,1.3,2.4,1.7,4,1.6c2.7-0.1,5.3,0,8,0C319,222.6,317.7,224.5,318.3,226.6z M308.2,226.6c1.8-1.1,4.2-1.3,5.6-3.2
	c0.3-0.5-0.4-1.3-1.1-1c-2.1,0.7-4.4,1.3-5.8,3.2C306.5,226,307.3,226.5,308.2,226.6z"/>
<path class="st9" d="M501.2,267.3c-4.6,8.4-0.5,18.1,8.5,20.4c0.5,0.1,0.8,0.5,1.2,0.8c-0.8,0.1-1.9-0.2-2.2,0.3
	c-1.3,1.5-3.1,0.5-4.6,1.1c-0.9-2.6-4.6-2.5-5.2-4.9c-0.8-2.9-2.1-3.4-4.6-2.6c-0.4,0.1-0.9-0.2-1.8-0.4c1.1-1.3,1.9-2.3,3.2-3.9
	c-4.6,0.1-7.2,2.2-9.4,5.2c-2.4-7.7-7.7-12.4-15.4-14.5c1.8-1.5,3.7-2.1,5.8-0.7c2.7,1.8,5.3-0.3,8-0.3c3.9-0.1,6.9,0.9,7.7,4.6
	c0.2,0.8,0.2,1.6,1.3,1.3c1.1-0.3,1.7-0.9,1.8-2.1C495.9,268.1,497.8,266.7,501.2,267.3z M485.9,270.4c-0.6,0.1-0.8,0.5-0.8,1
	c0,0.6,0.4,0.9,1,0.7c0.4-0.2,0.8-0.6,0.9-1C487,270.5,486.4,270.4,485.9,270.4z"/>
<path class="st12" d="M525.9,206.2c1.5,7.1-0.4,11.6-5.7,13.4c-4.4,1.5-9-0.1-11.6-4c-2.5-3.8-2-8.4,1.2-11.9
	c3-3.2,7.8-3.9,11.8-1.7c1,0.5,1.9,1.3,2.8,1.9C524.5,204.9,525.4,205.5,525.9,206.2z M521.7,212.6c-4.1-7.9-4.2-7.9-9.1-1.3
	c2.3,0.2,2.8,2.2,4.1,4C517.6,213,519.4,212.5,521.7,212.6z"/>
<path class="st9" d="M293.7,341.4c-5.1,9.2-11.3,17.6-16.9,26.4c-1.9,3-3.4,6.1-6,8.6c-1.7-3.9-1.4-7.8-0.7-11.9
	c0.4-2.3,2.5-2.2,3.8-3.1c1.2-0.8,1.9-1.2,0.6-2.4c-0.8-0.7-2.6-0.8-1.9-2.3c0.6-1.4,2.3-2,3.8-2c4.4-0.1,5.9-1.8,5.3-6.1
	c-0.2-1.2-0.4-2.3,1.3-2.6c1.9-0.3,2.2-1.2,2.2-3.2c0-0.9,2.5-1.1,3.9-1.7C290.3,340.5,292.1,341.2,293.7,341.4z"/>
<path class="st2" d="M709.8,472.1c-0.6-6.2-1.6-12.3-3-18.3c2,0.3,4.1,1.8,6.1,0c2.9,1.2,2.8,3.9,2.9,6.3
	C716,465.1,714.2,469.3,709.8,472.1z"/>
<path class="st3" d="M733.4,408.6c-11.9,4.2-15.4,14.5-18.3,25.2c-0.2,0.8,0,1.8-0.8,2.4c-1.1-5.9,0.5-11.5,1.6-17.2
	c0.2-0.8,0.6-1.9,1.3-2.2c3.6-1.8,5-6,8.6-8C728.6,407.2,730.8,406.8,733.4,408.6z"/>
<path class="st3" d="M561.3,356c-4.5-5.4-6.8-12.1-10.4-17.9c-1-1.6-1.7-3.4-2.6-5c-0.2-0.3-0.5-0.5-0.7-0.8c0-0.3-0.1-0.5-0.1-0.8
	c0.5,0,1,0,1.6,0c1.3,0.9,1.3,3.5,3.8,3.1c-0.5,3.2,1.6,3.2,3.8,3.1c0,1,0,2.1,1,2.7c2.1,1.2,3.4,2.6,2.2,5.2
	c-0.2,0.4-0.1,1.2,0.2,1.4C564,349.5,561.9,352.8,561.3,356z"/>
<path class="st9" d="M695.9,435.9c-7.2-0.2-10.5,4.9-13.7,10.2c-2.2-2.8-1.8-5.3,1.5-7.2c1.3-0.8,1.6-1.7,1.6-3.1
	c0-1.3-0.6-3.3,1.4-3.3c2.6,0,5.6-1.6,7.6,1.4C694.7,434.7,695.2,435.3,695.9,435.9z"/>
<path class="st9" d="M116.3,417.9c-1.9-1.4-2.7-3.6-4-5.4c-3.9-5-7.2-5.9-13.2-3.3c-0.6,0.2-1.2,0.2-1.9,0.3c0.3-3,4.8-5.6,8.1-4.8
	c1.8,0.5,3.6,1.1,4.9,2.6c0.2,0.2,0.3,0.6,0.5,0.6C119.2,407.5,114.4,414.6,116.3,417.9z"/>
<path class="st9" d="M400.9,269.5c-2.5,2.8-6.1,2-9.2,2.8c-3.8,1-7.7,1.5-11.5,2.3c0.8-1.7,1.7-3.2,3.9-2.9c0.3,0,0.9-0.1,1.1-0.3
	C389.7,265,395.6,269.7,400.9,269.5z"/>
<path class="st9" d="M511,288.5c5.6,0.3,10-2.1,13.7-6c0.3,1.1,0.6,2.2,0.7,3.3c0.5,5.3-0.8,6.1-5.9,5c-2.2-0.5-4.6-0.1-6.9-0.6
	C511.6,289.9,511,289.6,511,288.5z"/>
<path class="st9" d="M291.5,240.6c0.5,1.1,1.2,2.5,0,3.4c-2.2,1.7-2.7,4.2-4.1,6.4c-1.4-0.3-2.3,0.3-2.1,1.7c0.3,2-1.5,4.6,1.5,5.8
	c-1,2.5-2.7,2-3.4,0.3c-0.9-2.1-2.3-4.7-0.2-6.8c3.4-3.4,3.8-7,1.2-11.2c1.9-0.4,2.5,1.3,3.7,1.3c-0.2,1-1.1,2.2-0.1,2.8
	c1.2,0.7,1.5-0.9,2.1-1.6C290.6,242.1,291.1,241.4,291.5,240.6z"/>
<path class="st9" d="M378.6,218.1c-8.2-1.2-16.5-2.5-24.7-3.7c-0.8-0.1-1.5-0.1-2.1-0.7c0.2-1.9,1.8-2,2.8-1.5
	c4.8,2.2,10.3,0.3,15.2,2.6c1.6,0.8,3.8-0.4,5.8,0.3C377.2,215.7,378.3,216.4,378.6,218.1z"/>
<path class="st9" d="M103.5,416.7c-0.7,0-1.3,0-2,0c0.6-2,1.4-3.9-1-5.5c-1.1-0.7-1.3-2.4-0.9-3.6c0.8-2.6,1.9-5,3-7.5
	c0.1-0.3,1-0.3,1.5-0.4C103.3,405.4,102.7,411,103.5,416.7z"/>
<path class="st9" d="M563.6,539.4c0.6-0.2,1.1-0.6,1.7-0.6c7.1-0.3,14.2-0.5,21.3-0.8c0,1.5,0,3.8-2.1,2.9c-5.8-2.4-11.3,1-17,0.2
	C566,540.8,564.4,541.2,563.6,539.4z"/>
<path class="st9" d="M703.6,444.6c-1.8-2.9-3.5-6-6.1-8.4c0.5-1.8-0.6-3.3-1.8-5.9c3.9,2.4,7,3.6,8.6,7.4
	C705.5,440.5,703.1,442.3,703.6,444.6z"/>
<path class="st9" d="M526,279.4c0.8-3,1-6.1,0.2-9.1c2,0.8,3.9,1.6,5.9,2.3c1,0.3,1.6,0.6,1.6,1.7c0.1,1.1-0.3,1.8-1.4,2.3
	C530.2,277.3,528.2,278.4,526,279.4z"/>
<path class="st9" d="M248.6,527.2c-6.4,1-12.8,2-19.1,3c0-1.2,0.2-2.8,1.5-2.7c5.5,0.3,10.7-2.7,16.2-1.8
	C248.1,525.9,248.5,526.4,248.6,527.2z"/>
<path class="st9" d="M598,423.3c-3.1-3-4.2-7.1-6.1-10.7c2.8-1.7,5.9,0.3,6.1,4.3C598.2,418.9,598.1,421.1,598,423.3z"/>
<path class="st9" d="M515.5,260.9c-3.7-0.3-7.2,0.6-10.7,1.7c-0.3-0.9-0.6-1.9-1-2.8c-0.6-1.4,0.1-2.2,1.2-1.7
	c2,0.7,3.9-0.4,5.9-0.1c0.2,1.6,1.4,1.9,2.4,1.2C516.2,257.2,515.3,259.8,515.5,260.9z"/>
<path class="st3" d="M517.8,316.2c-3.8-0.1-7.3-1.5-10.7-3.1C511.3,309.8,516,311.2,517.8,316.2z"/>
<path class="st9" d="M482.5,299.3c2.3-3.8,4.2-7.6,4.1-12.2c1.6,1.5,1.4,4,2.7,5.7c0.5,0.7-0.1,1.7-1.2,1.9c-1,0.2-1.8,0.6-1.7,1.7
	C486.8,299.6,484.7,299.4,482.5,299.3z"/>
<path class="st9" d="M429.8,264.1c-2.2,1-4.4,1.6-6.9,1.5c0.3-0.8,0.5-1.7,0.9-2.4c0.8-1.4,0.8-3.9,3.3-3.4
	C429.2,260.2,430.1,262,429.8,264.1z"/>
<path class="st9" d="M330.4,231.3c4.5,2.3,8.7,0.4,13-0.7c-0.4,2-1.1,3.5-3.5,2.8c-0.9-0.3-1.3,0.5-1.9,0.9
	C335.2,236.1,331.6,234.7,330.4,231.3z"/>
<path class="st3" d="M225.7,536.4c2.6,0.2,5.2,0.4,7.7,1.4c-0.3,2.5-2,3.2-4.3,3.1C225.9,540.9,226.4,538.2,225.7,536.4z"/>
<path class="st3" d="M565.2,363.6c-1.5-1.5-2.1-3.6-3-5.4c1.9,0.5,4.7-2.7,5.8,1.5C568.6,362.3,568,363.6,565.2,363.6z"/>
<path class="st9" d="M377.9,274.9c-1.9,0.9-4,1.5-6.1,1.4c0-1.1-1-2.1-0.3-3.2c0.5-0.9-0.1-2.4,1.5-2.7c1.6-0.3,1.6,1.2,2.2,2
	C375.9,273.3,376.9,274,377.9,274.9z"/>
<path class="st9" d="M377.8,221.2c1.3-1.6,4.4-0.2,5.2-2.9c1.5,0.4,1.9,1.5,1.6,2.9c-0.3,1.3-1.3,2.2-2.7,2.3
	C380.1,223.6,378.3,223.6,377.8,221.2z"/>
<path class="st9" d="M476.4,304c2.1-1.6,4.1-3.1,6.2-4.7c1.6,2.6,0.1,4.4-1.5,6.2C479.4,305.3,477.5,305.9,476.4,304z"/>
<path class="st3" d="M590.4,409.5c-1.8-2.3-3.6-4.6-3.9-7.6C591.5,402.5,591.7,403,590.4,409.5z"/>
<path class="st3" d="M546.9,330.6c0-0.2-0.1-0.5-0.1-0.7c-0.2-0.3-0.5-0.5-0.7-0.8c-1.3-1.8-2.6-3.6-3.9-5.4c1.3-2.4,2.6-2.4,3.8,0
	c-0.2,2.2,0.9,3.2,3.1,3.1c0,0.5,0,1,0,1.5C547.5,328.2,547.8,330.1,546.9,330.6z"/>
<path class="st9" d="M357.9,226.7c2.9-1.4,6-2,9.1-2.4C365.3,228.1,362.3,228.9,357.9,226.7z"/>
<path class="st13" d="M291.5,240.6c-0.5,0.7-0.9,1.5-1.5,2.2c-0.6,0.7-0.9,2.3-2.1,1.6c-1.1-0.6-0.1-1.8,0.1-2.8
	c0,0-0.1-0.2-0.1-0.2c0.9-0.6,1.2-1.5,1.6-2.4c0.8-0.6,1.5-1.7,2.7-0.9c-0.2,0.8-0.4,1.7-0.6,2.5
	C291.7,240.6,291.5,240.6,291.5,240.6z"/>
<path class="st13" d="M296.8,231.3c1.8-0.3,3.3-3.9,4.8-1.8c1,1.4-2.6,2.4-3.8,3.9c-0.6,0.7-1.5,0.8-2.4,0.1
	C295.3,232.5,296.4,232.1,296.8,231.3z"/>
<path class="st3" d="M119.4,426.3c-0.8-1.8-1.5-3.6-2.3-5.3c2,0,4.1,0,6.1,0C122.1,422.8,121.6,425.2,119.4,426.3z"/>
<path class="st9" d="M363.3,277.9c-1.7,0.9-3.4,1.4-5.4,1.3c0-0.6,0-1.3,0.1-1.9c0.3-1.2,0.7-2.3,2.3-2.5
	C362.9,274.4,362.1,277.1,363.3,277.9z"/>
<path class="st9" d="M705.9,450.7c-1.1-1.3-1.3-2.9-1.6-4.5c1.4-0.5,3.2-2,3.8,0.6C708.4,448.3,709.1,450.8,705.9,450.7z"/>
<path class="st9" d="M260.1,526.3c-2.6-0.2-5,1.2-7.7,0.8c0.4-2.3,1.9-3,4-3C258.1,524.2,259.8,524,260.1,526.3z"/>
<path class="st9" d="M593.5,537.2c2-0.7,4-1,6.1-0.8c0.1,1.6,0,3.4-1.9,3.4C596,539.9,593.8,539.8,593.5,537.2z"/>
<path class="st13" d="M286.8,258c-3-1.3-1.2-3.9-1.5-5.8c-0.2-1.4,0.7-2,2.1-1.7c0.1,0.5,0.2,1,0.3,1.5c-0.1,1.8-0.1,3.6-0.2,5.3
	C287.3,257.5,287.1,257.7,286.8,258z"/>
<path class="st9" d="M744.9,414.8c-1.8-1.8-3.5-3.6-5.3-5.4c2.4-0.2,4.3,0.1,5.9,2.3C746.6,413.4,745.7,413.9,744.9,414.8z"/>
<path class="st13" d="M293.6,275.7c1,1.6,2,3.2,2.9,4.8c0.4,0.6,0.4,1.2-0.3,1.6c-0.6,0.3-1-0.1-1.2-0.5c-1-1.9-4.3-3.1-2-6.1
	C293.1,275.6,293.3,275.7,293.6,275.7z"/>
<path class="st13" d="M305.5,291.5c-1.9,0.3-5.7-2.5-5.7-4.2c0-0.3,0.3-0.9,0.5-0.9c0.4,0,1,0.2,1.3,0.5c1.4,1.4,2.7,2.9,4.1,4.4
	C305.7,291.3,305.5,291.5,305.5,291.5z"/>
<path class="st9" d="M307.3,320.7c-1,2.6-2.6,4.8-4.4,6.8c-0.9-2,1.5-3.6,0.7-5.9C303.2,320.3,306,321.1,307.3,320.7z"/>
<path class="st9" d="M370.9,276.4c-2.1,1.3-4.5,1.5-6.9,1.5C365,274.2,366.4,273.9,370.9,276.4z"/>
<path class="st9" d="M521.6,263.5c-1.5-0.8-3-1.6-4.5-2.4c0-1.2,0-2.4,1.4-2.8c1.7-0.5,1.5,1.3,2.1,2.1
	C521.4,261.2,521.7,262.3,521.6,263.5z"/>
<path class="st9" d="M369.4,223.6c2.3-0.7,4.6-1.4,6.9-2.2C375.5,224.7,373.6,225.3,369.4,223.6z"/>
<path class="st9" d="M499.2,289c0,0.7-0.7,1.2-0.9,1c-1.1-1.4-3-2.2-3.2-4.2c-0.1-0.7,0.7-1.1,1.3-0.8
	C498.3,285.7,498.4,287.6,499.2,289z"/>
<path class="st3" d="M604.1,534.8c0.1-2.6-2.4-2.6-3.8-3.7c1.9-1.5,3.6-1,4.8,0.7C606,533,606.3,534.4,604.1,534.8z"/>
<path class="st9" d="M422.2,265.6c-1.9,1-4,1.2-6.1,1.4C418.7,263.6,420,263.3,422.2,265.6z"/>
<path class="st9" d="M342.6,212.3c-2.6-0.1-5.1,0-7.6-0.9C336.8,209.7,340.9,210.2,342.6,212.3z"/>
<path class="st9" d="M85.1,426.3c-0.2,1,0.2,2.2-0.8,3c-1.2-0.2-3.3,0.5-3-1.7C81.6,425.4,83.7,426.6,85.1,426.3z"/>
<path class="st9" d="M556.8,337.6c-2.2,0.1-4.3,0.2-3.8-3.1C555.1,334.4,556.5,335.3,556.8,337.6z"/>
<path class="st3" d="M755.6,449.2c-1-2.5-1.6-5-1.5-7.7C757.3,443.6,754.8,446.7,755.6,449.2z"/>
<path class="st9" d="M751.8,430.9c-1.1-1.3-1.4-2.9-1.6-4.6c1.5-0.8,2.5-0.8,2.3,1.3C752.4,428.7,752,429.8,751.8,430.9z"/>
<path class="st3" d="M757.1,461.4c-0.4,3.6,0.8,7.2-0.7,10.7c0-3.8,0-7.6,0-11.4C756.7,460.9,756.9,461.2,757.1,461.4z"/>
<path class="st9" d="M549.1,326.8c-2.2,0.2-3.2-0.9-3.1-3.1C548.5,323.5,549.5,324.5,549.1,326.8z"/>
<path class="st9" d="M287.5,257.2c0.1-1.8,0.1-3.6,0.2-5.3C289.8,254,289.7,255.4,287.5,257.2z"/>
<path class="st9" d="M296.8,267.5c0.1,1.4,1.3,2.7,0,4c-0.2,0.2-0.9,0.1-1-0.1C294.7,269.8,296.1,268.8,296.8,267.5z"/>
<path class="st9" d="M302.4,270c-0.9-0.2-1-0.8-1-1.4c0.1-0.9,0.6-1.3,1.4-1.3c0.7,0,1.3,0.2,1.2,1
	C303.9,269.2,303.1,269.7,302.4,270z"/>
<path class="st9" d="M330.4,210.6c-1.5-0.2-3.2,0.5-4.6-0.7C327.5,209,329.3,207.9,330.4,210.6z"/>
<path class="st9" d="M291.7,240.6c0.2-0.8,0.4-1.7,0.6-2.5c0.9,0.2,2.5-0.5,2.4,0.8C294.6,240.1,293.5,241.6,291.7,240.6z"/>
<path class="st9" d="M88.9,418.7c-0.4,1.7-1.1,3.3-2.4,4.6C87,421.6,85,418.6,88.9,418.7z"/>
<path class="st3" d="M756.4,458.4c-1.3-1.4-0.6-3-0.7-4.6C758.2,455,757.2,456.7,756.4,458.4z"/>
<path class="st9" d="M289.5,239c-0.3,0.9-0.7,1.9-1.6,2.4c-0.1-0.9-0.3-1.7-0.3-2.6c0-0.6-0.3-1.7,0.9-1.6
	C289.4,237.3,289.2,238.4,289.5,239z"/>
<path class="st9" d="M546.9,330.6c1-0.5,0.6-2.4,2.2-2.3c0,1,0,2,0,3.1c-0.5,0-1,0-1.6,0C547.3,331.2,547.1,330.9,546.9,330.6z"/>
<path class="st9" d="M319,209c-1.1,0-2.2,0.3-3.1-0.7C317.2,207.3,318.3,206.9,319,209z"/>
<path class="st2" d="M351.8,539.5c1,0,2.1,0,3.1,0C353.9,541.6,352.8,541.6,351.8,539.5z"/>
<path class="st3" d="M245.5,538.1c1.1-0.1,2.2-0.5,3.1,0.6C247.3,539.7,246.2,540,245.5,538.1z"/>
<path class="st9" d="M296.8,236.6c0.9,0.2,2-0.5,2.6,0.7c0.1,0.1-0.3,0.6-0.6,0.7C297.6,238.3,296.9,237.9,296.8,236.6L296.8,236.6z
	"/>
<path class="st9" d="M434.4,264.1c-1,0-2,0-3.1-0.1C432.4,262,433.5,262,434.4,264.1z"/>
<path class="st9" d="M303,280.9c-0.5,0-1.1,0-1.2-0.6c-0.2-0.7,0.5-0.7,1-0.8c0.5-0.1,1.1,0,1.2,0.6
	C304.2,280.8,303.5,280.8,303,280.9z"/>
<path class="st3" d="M506.3,313c-1.5,0.1-2.8-0.4-3.9-1.5C503.8,311.9,505.8,310.6,506.3,313z"/>
<path class="st9" d="M284.3,234.4c0.3-0.2,0.6-0.4,0.9-0.4c0.7,0,0.8,0.5,0.6,1c-0.1,0.2-0.5,0.4-0.7,0.6
	C285,235.2,284.8,235,284.3,234.4z"/>
<path class="st9" d="M485.7,306.9c-0.8,0-1.7,0.1-2.3-0.7C484.6,305,485.3,305.3,485.7,306.9z"/>
<path class="st9" d="M526.2,262.1c-0.2,0.4-0.4,0.8-0.6,0.9c-0.6,0.2-0.8-0.3-0.8-0.8c0-0.3,0.4-0.6,0.6-0.7
	C525.6,261.5,525.9,261.8,526.2,262.1z"/>
<path class="st9" d="M301.3,329.9c0,1.1-0.5,1.8-1.4,2.2C299.8,331.1,299.8,330,301.3,329.9z"/>
<path class="st9" d="M97.2,409.4c-0.5,1-1.2,1.5-2.3,1.6C94.9,409.4,96.1,409.4,97.2,409.4z"/>
<path class="st9" d="M296.7,336.8c-0.1,1-0.6,1.8-1.5,2.3C295.2,338,295.2,336.9,296.7,336.8z"/>
<path class="st9" d="M298.3,334.5c0,1.1-0.6,1.8-1.5,2.3C296.8,335.7,296.8,334.6,298.3,334.5z"/>
<path class="st3" d="M315.2,519.3c1.1,0.2,1.8,0.8,2.4,1.6C316.4,521.1,315.1,521.2,315.2,519.3z"/>
<path class="st9" d="M524.5,266c-1-0.1-1.6-0.7-1.7-1.7C524.1,264.1,524.7,264.7,524.5,266z"/>
<path class="st9" d="M281.8,268.2c0.1-0.2,0.1-0.5,0.3-0.6c0.1-0.1,0.4,0.2,0.6,0.2c-0.1,0.2-0.1,0.5-0.3,0.6
	C282.2,268.5,282,268.3,281.8,268.2z"/>
<path class="st9" d="M528,268.2c0.1-0.2,0.1-0.5,0.3-0.6c0.2-0.1,0.4,0.2,0.6,0.2c-0.1,0.2-0.1,0.5-0.3,0.6
	C528.5,268.5,528.2,268.3,528,268.2z"/>
<path class="st9" d="M94.9,411c-0.1,1-0.6,1.5-1.6,1.5C93.4,411.5,93.9,411,94.9,411z"/>
<path class="st9" d="M298.9,276.7c0.2,0.1,0.4,0.2,0.6,0.3c-0.1,0.2-0.1,0.5-0.3,0.6c-0.2,0.1-0.4-0.1-0.6-0.2
	C298.7,277.1,298.8,276.9,298.9,276.7z"/>
<path class="st9" d="M348,213.5c-0.6,0.1-1.2,0-1.6-0.5C347.4,211.8,347.8,212.4,348,213.5z"/>
<path class="st9" d="M305.7,234.5c-0.2,0.1-0.5,0.3-0.6,0.2c-0.2-0.1-0.2-0.4-0.3-0.6c0.2-0.1,0.5-0.3,0.6-0.2
	C305.6,234,305.6,234.3,305.7,234.5z"/>
<path class="st9" d="M331.6,235.6c-0.1,0.2-0.2,0.4-0.3,0.6c-0.2-0.1-0.5-0.1-0.6-0.3c-0.1-0.2,0.1-0.4,0.2-0.6
	C331.2,235.5,331.4,235.5,331.6,235.6z"/>
<path class="st3" d="M523.9,524c-0.6,0.1-1.2,0-1.6-0.6C523.4,522.2,523.7,523,523.9,524z"/>
<path class="st9" d="M511.4,256.8c0.3,0.1,0.5,0.2,0.7,0.3c-0.2,0.3-0.3,0.5-0.5,0.8c-0.2-0.1-0.7,0.6-0.6-0.2
	C511,257.4,511.2,257.1,511.4,256.8z"/>
<path class="st9" d="M282.4,265.4c-0.2-0.1-0.5-0.1-0.6-0.3c-0.1-0.2,0.1-0.4,0.2-0.6c0.2,0.1,0.5,0.1,0.6,0.3
	C282.7,264.9,282.5,265.2,282.4,265.4z"/>
<path class="st3" d="M737.2,408.6c-0.8,0-1.5,0-2.3-0.1C735.8,407.7,736.5,407.7,737.2,408.6z"/>
<path class="st3" d="M315.1,523.3c-0.5,0-1,0-1.5,0C314.1,522.6,314.6,522.6,315.1,523.3z"/>
<path class="st9" d="M681.4,447.7c0,0.6-0.1,1.2-0.7,1.6C680.7,448.6,680.8,448.1,681.4,447.7z"/>
<path class="st9" d="M481.8,306.1c-0.3-0.2-0.5-0.4-0.8-0.7C481.3,305.7,481.6,305.9,481.8,306.1z"/>
<path class="st9" d="M325.1,229.2c0.2,0.2,0.5,0.4,0.7,0.5C325.6,229.6,325.4,229.4,325.1,229.2z"/>
<path class="st9" d="M355.6,227.4c0.3-0.2,0.5-0.4,0.8-0.6C356.1,227,355.9,227.2,355.6,227.4z"/>
<path class="st3" d="M600.4,427.7c-0.2-0.2-0.4-0.5-0.7-0.7C599.9,427.3,600.2,427.5,600.4,427.7z"/>
<path class="st9" d="M706.6,453.1c-0.2-0.3-0.4-0.5-0.6-0.8C706.3,452.6,706.5,452.8,706.6,453.1z"/>
<path class="st3" d="M319.7,521.8c-0.3,0.3-0.5,0.5-0.8,0.8c0-0.3,0.1-0.7,0.1-1C319.3,521.7,319.5,521.8,319.7,521.8z"/>
<path class="st3" d="M713.5,450c0,0.3,0,0.5,0,0.8c-0.1-0.2-0.2-0.3-0.3-0.5C713.2,450.2,713.4,450,713.5,450z"/>
<path class="st9" d="M312,208.1c-0.3-0.2-0.5-0.3-0.8-0.5C311.5,207.8,311.8,207.9,312,208.1z"/>
<path class="st3" d="M601.1,428.6c-0.2-0.3-0.5-0.5-0.7-0.8C600.6,428,600.9,428.3,601.1,428.6z"/>
<path class="st14" d="M349.9,449.2c-26.7,1.2-50.3-22.7-50.2-49.8c0.1-27.1,22.1-50.4,50-50.5c27.4-0.1,50.6,22.3,50.5,51
	C400.1,427,376,450.8,349.9,449.2z M350.1,437.2c21.2,0,38.2-16.8,38.3-37.8c0.1-21.1-17.3-38.3-38.8-38.2
	c-20.9,0-37.6,17.6-37.7,38C311.8,420.5,330.1,438,350.1,437.2z"/>
<path class="st2" d="M465,440.8c-6.2-0.7-12-2.7-18-4.2c-5.6-1.4-11-3.4-16.6-4.9c-2.1-0.6-4-1.6-5.9-2.5c5.5-9.8,12-19,18.3-28.4
	c3.6,3.8,5.5,8.6,7.9,13.1C455.5,423,460.9,431.6,465,440.8z"/>
<path class="st15" d="M418.7,307c-6.9,0-11.8-5-11.8-12.1c0-6.6,5.1-11.7,11.8-11.8c6.8,0,12.6,5.1,12.4,11.7
	C430.8,301.5,426.6,307.2,418.7,307z"/>
<path class="st1" d="M451.4,319.9c0.2,0.3,0.4,0.6,0.6,0.9C451.8,320.5,451.6,320.2,451.4,319.9z"/>
<path class="st15" d="M520.3,441.6c-13.5,0.9-28.5-13-27.9-29.6c0.6-15.7,13-27.8,29.3-27.8c15.2,0.1,28.1,13.3,28.2,28.7
	C549.9,428.6,536.4,442.6,520.3,441.6z M517,403.3c-1.9,0-1.8,1-1.7,1.9c0.6,4-0.2,7.1-4.2,9.1c-1.8,0.9-2.2,2.4,0.5,2.9
	c3.8,0.7,6.6,2.4,6.9,6.6c0.1,0.8,0.4,1.6,1.2,1.8c1.1,0.3,1.7-0.6,2-1.4c1.6-4,4.6-4.9,8.6-4.5c2.3,0.2,2.9-1,1.2-2.7
	c-2.9-2.8-3.9-5.8-1.8-9.5c0.4-0.7,0.6-2.8-0.5-2.4C524.6,406.7,520.3,407.7,517,403.3z"/>
<path class="st2" d="M483.4,326.2c0,5.6-3.7,9.1-9.3,9.1c-5.5-0.1-9.9-4.1-9.7-9c0.3-7.3,5.1-10,9.6-10
	C479.6,316.1,483.4,320.2,483.4,326.2z"/>
<path class="st9" d="M546.1,329.2c0.2,0.3,0.5,0.5,0.7,0.8C546.6,329.7,546.4,329.4,546.1,329.2z"/>
<path class="st2" d="M465.7,441.6c-0.2-0.3-0.5-0.5-0.7-0.8C465.2,441.1,465.5,441.3,465.7,441.6z"/>
<path class="st2" d="M466.4,442.3c-0.2-0.2-0.5-0.5-0.7-0.7C466,441.8,466.2,442.1,466.4,442.3z"/>
<path class="st9" d="M547.6,332.2c0.2,0.3,0.5,0.5,0.7,0.8C548.1,332.7,547.9,332.5,547.6,332.2z"/>
<path class="st5" d="M52.8,499.8c7.7,1.5,8.3,1,8.4-7.4c0.1-9,0-18.1,0-27.1c0-4.8,0-9.6,0.4-14.4c-0.3,5.5,1.3,10.9,1.2,16.4
	c-0.2,10.3,0.3,20.7-1.4,31c-0.4,2.6,1.4,2.1,2.9,2.2C60.4,501.4,56.5,502.2,52.8,499.8z"/>
<path class="st5" d="M685.3,500.4c0.5,0,1,0,1.5,0c6.3,0.1,5.1,0.2,5.3-5.3c0.2-4.2,1-8.3,0.7-12.5c-0.2-3.9-0.5-7.7-0.1-11.7
	c0.4-4.2-0.1-8.4,0.2-12.6c0.1-2.4-1.5-4.7-0.5-7.1c1.6,0.1,1.2,1.3,1.2,2c0,12.8,0.1,25.7,0,38.5c0,1.6-0.5,3.2-0.7,4.9
	c-0.4,2.9,0.5,4.4,3.7,3.8C694.9,502.5,687.2,502.6,685.3,500.4z"/>
<path class="st9" d="M671.6,489.9c0,0.4,0,0.8,0,1.2c-0.3,1.4,0.2,3-0.7,4.7c-1.5-2.2-0.6-4.3-0.9-6.3c-0.1-0.7-0.2-1.8,0.9-1.6
	C671.7,488.1,671.4,489.2,671.6,489.9z"/>
<path class="st5" d="M696.7,500.3c0.3-0.2,0.6-0.4,0.8-0.6C697.2,499.9,697,500.1,696.7,500.3z"/>
<path class="st3" d="M756.4,473.7c1.1,1.1,0.3,1.3-0.7,1.5C755.7,474.5,755.8,474,756.4,473.7z"/>
<path class="st15" d="M56.7,437c0.2-1-0.5-2.5,1-2.9c1-0.2,1.2,0.7,1.4,1.5c0,0-0.1-0.1-0.1-0.1c-0.3,0.2-0.5,0.4-0.8,0.6
	C57.7,436.4,57.2,436.7,56.7,437z"/>
<path class="st15" d="M110,389.2c-0.5-0.1-1.2-0.1-0.9-0.9c0.3-0.6,1.1-0.4,1.7-0.4C110.6,388.4,110.3,388.8,110,389.2z"/>
<path class="st5" d="M78.2,469.8c0.8,0.6,0.7,1.5,0.6,2.4C77.9,471.5,78.1,470.7,78.2,469.8z"/>
<path class="st5" d="M56.7,472.9c0.7,0.3,1.2,0.8,1.5,1.5c0,0,0,0,0,0C57.2,474.4,56.7,473.9,56.7,472.9L56.7,472.9z"/>
<path class="st5" d="M109.7,416.3c0-0.1-0.1-0.1-0.1-0.2c0.1-0.1,0.2-0.1,0.3-0.2c0,0.1,0.1,0.2,0,0.2
	C109.8,416.2,109.7,416.3,109.7,416.3z"/>
<path class="st5" d="M59,475.2c0.3,0.1,0.7,0.2,1,0.3c-0.1,0.1-0.1,0.2-0.2,0.3C59.5,475.6,59.2,475.4,59,475.2L59,475.2z"/>
<path class="st5" d="M56.7,472.9c-0.3-0.3-0.5-0.5-0.8-0.8l0,0C56.2,472.4,56.4,472.7,56.7,472.9L56.7,472.9z"/>
<path class="st5" d="M110.7,418c-0.1-0.1-0.2-0.2-0.3-0.3c0.1,0,0.1,0,0.2,0C110.6,417.8,110.7,417.9,110.7,418L110.7,418z"/>
<path class="st9" d="M58.2,436.1c0.3-0.2,0.5-0.4,0.8-0.6C58.7,435.7,58.5,435.9,58.2,436.1z"/>
<path class="st5" d="M59,475.2c-0.3-0.3-0.5-0.5-0.8-0.8c0,0,0,0,0,0C58.4,474.7,58.7,474.9,59,475.2C59,475.2,59,475.2,59,475.2z"
	/>
<path class="st8" d="M318.3,226.6c-0.6-2.1,0.8-4,0.8-6c2.1-0.8,4.3-0.5,6.4-0.5c12.5,0,24.9,0,37.4,0.2c-8.9,1.4-17.7,2.8-26.6,4
	C330.3,225.1,324.4,226.7,318.3,226.6z"/>
<path class="st9" d="M478.1,284.9c-0.1,3.6-6.1,11.4-9.3,12.3c-0.4,0.1-1.1,0.1-1.4-0.2c-3.6-2.8-7.4-5.4-8.9-10
	c-0.8-2.5-0.2-4.5,1.7-6.2c1.8-1.6,4-1.7,5.9-0.3c1.4,1.1,2.5,1.2,4,0c1.6-1.3,3.5-1.5,5.3-0.3C477.2,281.4,478.3,283,478.1,284.9z"
	/>
<path class="st13" d="M289.3,270.6c-1.3-0.3-1.6-1.4-1.7-2.3c-0.1-1.6-2-2.8-0.9-4.5c0.1-0.2,0.7-0.2,1-0.2c0.6,0.2,2.8,5.9,2.4,6.4
	C289.9,270.3,289.6,270.4,289.3,270.6z"/>
<path class="st13" d="M315,299.9c0.1,1-0.4,1.4-1,1.3c-0.7-0.2-1.4-0.6-1.8-1.2c-1-1.3-3.3-1.6-3-3.9c0-0.2,0.7-0.5,0.9-0.4
	C312,296.8,313.5,298.5,315,299.9z"/>
<path class="st2" d="M492,240.4c-3.8-0.7-5.7,1.1-7.5,3.8c-1.1-2.7-1.9-5-4.9-5.4c-1-0.1-1-1.3-0.2-1.6c2.8-1.2,2.5-3.7,2.6-6.4
	c2.4,1,4.5,2.8,7.2,1.3c0.8-0.5,1.4,0.7,1,1.4C488.6,236.1,490.7,237.7,492,240.4z"/>
<path class="st9" d="M518.4,273.6c-0.8,1.9-0.7,5.1-3.8,6.2c-2.8,1-4.5-1.6-6.5-2.9c-1-0.6-1.5-2.2-0.8-3.8c0.6-1.3,1.6-1.8,2.7-1.5
	c1.5,0.3,2.2-0.6,3.2-1.4c1-0.8,2.2-1.2,3.5-0.4C517.9,270.6,518.6,271.5,518.4,273.6z"/>
<path class="st15" d="M472,251.8c-0.3-0.4-0.6-0.6-0.7-0.8c0-0.3,0.1-0.8,0.3-0.9c0.6-0.2,0.9,0.2,0.9,0.7
	C472.5,251,472.2,251.3,472,251.8z"/>
<path class="st15" d="M57,432.9c-0.6,0-1-0.4-0.8-0.9c0.2-0.7,0.4-1.6,1.3-1.6c0.7,0,1.2,0.5,1.1,1.2
	C58.5,432.5,57.6,432.5,57,432.9z"/>
<path class="st13" d="M308.2,226.6c-0.9-0.1-1.7-0.6-1.3-1.1c1.4-1.9,3.7-2.4,5.8-3.2c0.7-0.2,1.4,0.5,1.1,1
	C312.4,225.3,310,225.5,308.2,226.6z"/>
<path class="st15" d="M485.9,270.4c0.5,0,1.1,0.1,1,0.7c-0.1,0.4-0.5,0.9-0.9,1c-0.5,0.2-1-0.1-1-0.7
	C485,270.9,485.3,270.5,485.9,270.4z"/>
<path class="st2" d="M521.7,212.6c-2.3-0.1-4.1,0.4-5,2.7c-1.3-1.8-1.8-3.9-4.1-4C517.5,204.7,517.6,204.7,521.7,212.6z"/>
<path class="st15" d="M350.1,437.2c-20.1,0.9-38.3-16.7-38.3-38.1c0.1-20.4,16.8-38,37.7-38c21.6,0,38.9,17.1,38.8,38.2
	C388.3,420.4,371.3,437.2,350.1,437.2z M335.1,396c-0.2,6,2.1,11.4,3.7,17c0.4,1.6,1.4,2.2,3.1,2c5.3-0.5,10.6-0.9,15.7-2.7
	c3-1,5.8-2.5,7.9-5c2.3-2.8,3-7.9,1.1-10.7c-2.1-3.2-5.3-5.1-9.1-4.3c-2.9,0.6-3.4-0.7-4-2.8c-1.1-3.7-3.7-6.1-7.6-6.5
	c-3.7-0.4-6.6,1.2-8.8,4.3C335.2,389.9,335,392.9,335.1,396z"/>
<path class="st8" d="M517,403.3c3.2,4.4,7.6,3.4,12.3,1.8c1.1-0.4,0.9,1.7,0.5,2.4c-2.1,3.7-1.1,6.7,1.8,9.5
	c1.7,1.7,1.1,2.9-1.2,2.7c-3.9-0.4-7,0.5-8.6,4.5c-0.3,0.8-0.9,1.7-2,1.4c-0.8-0.2-1.1-1-1.2-1.8c-0.4-4.2-3.1-6-6.9-6.6
	c-2.6-0.5-2.3-2-0.5-2.9c4-2,4.8-5.1,4.2-9.1C515.3,404.3,515.2,403.3,517,403.3z"/>
<path class="st8" d="M335.1,396c-0.1-3.1,0.2-6.1,2.1-8.7c2.2-3,5.1-4.6,8.8-4.3c3.9,0.4,6.5,2.7,7.6,6.5c0.6,2.1,1.2,3.4,4,2.8
	c3.8-0.8,7,1.1,9.1,4.3c1.8,2.9,1.2,7.9-1.1,10.7c-2.1,2.6-4.9,4-7.9,5c-5.1,1.8-10.4,2.2-15.7,2.7c-1.7,0.1-2.7-0.4-3.1-2
	C337.2,407.4,334.8,402,335.1,396z"/>
</svg>


