<svg width="99" height="37" viewBox="0 0 99 37" fill="none" xmlns="http://www.w3.org/2000/svg">
<path d="M8.54563 21.4C8.39896 21.4 8.05896 21.4 7.52563 21.4C7.00563 21.3867 6.57229 21.3733 6.22563 21.36L4.10563 28.04C3.83896 28.1067 3.54563 28.1467 3.22563 28.16C2.90563 28.1867 2.58563 28.2 2.26563 28.2C1.47896 28.2 0.785625 28.1067 0.185625 27.92L0.0656251 27.72L9.08563 0.679999C9.41896 0.626665 9.82563 0.586664 10.3056 0.559998C10.7856 0.533332 11.2056 0.519999 11.5656 0.519999C11.899 0.519999 12.3056 0.533332 12.7856 0.559998C13.2656 0.586664 13.6523 0.633332 13.9456 0.7L22.9256 27.74C22.619 27.9267 22.239 28.06 21.7856 28.14C21.3456 28.2333 20.899 28.28 20.4456 28.28C19.7656 28.28 19.239 28.1267 18.8656 27.82C18.4923 27.5133 18.1723 26.9133 17.9056 26.02L16.4256 21.36C16.079 21.3733 15.6323 21.3867 15.0856 21.4C14.539 21.4 14.1923 21.4 14.0456 21.4H8.54563ZM9.62563 10.68L7.32563 17.9C7.63229 17.9 8.00563 17.8933 8.44563 17.88C8.89896 17.8667 9.20563 17.86 9.36562 17.86H13.3456C13.4923 17.86 13.7723 17.8667 14.1856 17.88C14.6123 17.88 14.9923 17.8867 15.3256 17.9L13.4856 12.12C13.1256 10.96 12.7523 9.73333 12.3656 8.44C11.9923 7.13333 11.6723 5.95333 11.4056 4.9H11.1856C10.9856 5.79333 10.7256 6.8 10.4056 7.92C10.099 9.02667 9.83896 9.94667 9.62563 10.68Z" fill="#FF4B8B"/>
<path d="M25.1988 26.48C25.2254 26.1333 25.3521 25.7467 25.5788 25.32C25.8054 24.8933 26.0654 24.56 26.3587 24.32C27.1721 24.7867 28.0654 25.2133 29.0388 25.6C30.0121 25.9733 31.0054 26.16 32.0188 26.16C33.2988 26.16 34.3188 25.8733 35.0788 25.3C35.8521 24.7133 36.2521 23.9667 36.2788 23.06C36.2788 22.3933 36.0254 21.7733 35.5188 21.2C35.0121 20.6267 34.2988 20.1667 33.3788 19.82L30.9988 18.94C30.0921 18.6067 29.2521 18.2 28.4788 17.72C27.7054 17.2267 27.0788 16.6267 26.5988 15.92C26.1321 15.2133 25.8988 14.3733 25.8988 13.4C25.8988 12.2533 26.1988 11.2733 26.7988 10.46C27.4121 9.63333 28.2254 9 29.2388 8.56C30.2521 8.12 31.3721 7.9 32.5988 7.9C33.5854 7.9 34.6388 8.02667 35.7588 8.28C36.8921 8.52 37.8588 8.82667 38.6588 9.2C38.6721 9.6 38.5921 10.0133 38.4188 10.44C38.2588 10.8667 38.0321 11.2267 37.7388 11.52C37.1121 11.2267 36.3388 10.9533 35.4188 10.7C34.4988 10.4333 33.5321 10.3 32.5188 10.3C31.4654 10.3 30.6054 10.56 29.9388 11.08C29.2854 11.6 28.9588 12.3067 28.9588 13.2C28.9588 13.88 29.2054 14.4467 29.6988 14.9C30.2054 15.34 30.9521 15.7467 31.9388 16.12L34.3988 17.04C35.8921 17.5867 37.0921 18.3267 37.9988 19.26C38.9054 20.1933 39.3588 21.3867 39.3588 22.84C39.3588 24.6133 38.6588 26 37.2588 27C35.8721 27.9867 34.1054 28.48 31.9588 28.48C30.5588 28.48 29.2854 28.28 28.1388 27.88C27.0054 27.4667 26.0254 27 25.1988 26.48ZM53.0616 27.32C52.4349 29.4667 51.7816 31.2333 51.1016 32.62C50.4216 34.0067 49.5749 35.0333 48.5616 35.7C47.5616 36.38 46.2616 36.72 44.6616 36.72C44.1282 36.72 43.5416 36.66 42.9016 36.54C42.2616 36.4333 41.7616 36.3133 41.4016 36.18C41.3882 35.82 41.4482 35.4333 41.5816 35.02C41.7282 34.6067 41.8949 34.2867 42.0816 34.06C42.3482 34.1533 42.7349 34.24 43.2416 34.32C43.7616 34.4133 44.2482 34.46 44.7016 34.46C46.2349 34.46 47.3616 33.9267 48.0816 32.86C48.8016 31.7933 49.4349 30.3667 49.9816 28.58L50.1016 28.16C49.4216 28.12 48.8949 27.9733 48.5216 27.72C48.1482 27.4533 47.8416 26.9533 47.6016 26.22L42.0216 8.6C42.7682 8.26667 43.3549 8.1 43.7816 8.1C44.1282 8.1 44.4349 8.19333 44.7016 8.38C44.9682 8.56667 45.1816 8.93333 45.3416 9.48L48.5016 19.52C48.8349 20.5733 49.1616 21.6733 49.4816 22.82C49.8149 23.9533 50.1016 24.9267 50.3416 25.74C50.3949 25.9267 50.5282 26.02 50.7416 26.02L55.6216 8.34C56.0216 8.26 56.4816 8.22 57.0016 8.22C57.5482 8.22 58.0349 8.28667 58.4616 8.42L58.5416 8.56L53.0616 27.32ZM77.6484 24.2C77.6484 24.8533 77.6751 25.4733 77.7284 26.06C77.7951 26.6467 77.9284 27.16 78.1284 27.6C77.6484 28.0267 77.0218 28.24 76.2484 28.24C75.6884 28.24 75.2884 28.08 75.0484 27.76C74.8218 27.44 74.7084 26.9533 74.7084 26.3V15.2C74.7084 13.6267 74.5084 12.4867 74.1084 11.78C73.7084 11.06 72.9284 10.7 71.7684 10.7C70.7551 10.7 69.6684 10.9933 68.5084 11.58C67.3618 12.1533 66.4018 12.8867 65.6284 13.78V28C65.2418 28.08 64.7551 28.12 64.1684 28.12C63.5684 28.12 63.0751 28.08 62.6884 28V8.5L62.9284 8.26H64.0284C64.7084 8.26 65.1418 8.44 65.3284 8.8C65.5284 9.14667 65.6284 9.65333 65.6284 10.32V10.9C66.5218 10.0333 67.5751 9.34 68.7884 8.82C70.0151 8.28667 71.2551 8.02 72.5084 8.02C73.7751 8.02 74.7818 8.30667 75.5284 8.88C76.2751 9.44 76.8151 10.1933 77.1484 11.14C77.4818 12.0867 77.6484 13.1267 77.6484 14.26V24.2ZM95.1653 15.32C95.2053 14.5467 95.112 13.7733 94.8853 13C94.6586 12.2133 94.232 11.56 93.6053 11.04C92.9786 10.52 92.1053 10.26 90.9853 10.26C89.532 10.26 88.3586 10.9467 87.4653 12.32C86.572 13.6933 86.1253 15.7 86.1253 18.34C86.1253 20.9 86.5786 22.8067 87.4853 24.06C88.392 25.3 89.6386 25.92 91.2253 25.92C92.212 25.92 93.1253 25.6933 93.9653 25.24C94.8186 24.7733 95.612 24.26 96.3453 23.7C96.6386 23.8867 96.9253 24.16 97.2053 24.52C97.4986 24.88 97.6853 25.24 97.7653 25.6C96.8453 26.4667 95.812 27.1667 94.6653 27.7C93.5186 28.22 92.2386 28.48 90.8253 28.48C89.3986 28.48 88.1853 28.1933 87.1853 27.62C86.1986 27.0467 85.3986 26.2733 84.7853 25.3C84.172 24.3267 83.7253 23.24 83.4453 22.04C83.1653 20.84 83.0253 19.6067 83.0253 18.34C83.0253 15.9267 83.4053 13.9533 84.1653 12.42C84.9386 10.8733 85.9386 9.73333 87.1653 9C88.392 8.26667 89.692 7.9 91.0653 7.9C92.332 7.9 93.4053 8.09333 94.2853 8.48C95.1786 8.86667 95.892 9.36 96.4253 9.96C96.972 10.5467 97.372 11.1667 97.6253 11.82C97.8786 12.4733 98.0053 13.06 98.0053 13.58C98.0053 14.1 97.9053 14.5467 97.7053 14.92C97.5053 15.28 97.0786 15.46 96.4253 15.46C96.0386 15.46 95.6186 15.4133 95.1653 15.32Z" fill="black"/>
</svg>
