<svg width="54" height="47" viewBox="0 0 54 47" fill="none" xmlns="http://www.w3.org/2000/svg">
<path d="M6.57178 43.5675V16H48.3771L49.286 42.7567L44.7419 45.9999H20.204H10.207L6.57178 43.5675Z" fill="#D6F4FC"/>
<path d="M2.08333 17.6666L1 14.3333L2.08333 11L8.42855 1H45.4166L51.1427 8.49999L52.9999 11V14.3333L51.9165 17.6666L49.7499 19.3333H45.4166L42.1666 17.6666L39.9999 16L38.9166 17.6666L35.6666 19.3333H31.3333L28.0833 17.6666L26.9999 16L25.9166 17.6666L22.6666 19.3333H19.4166L16.1666 17.6666L14 15.1666L12.9166 16L9.66665 19.3333H5.33332L2.08333 17.6666Z" fill="#FE4F60"/>
<path d="M4.71436 22.6667V43C4.71436 44.6568 6.0575 46 7.71436 46H46.2857C47.9425 46 49.2857 44.6568 49.2857 43V22.6667" stroke="black"/>
<path d="M14 12.6667C14 16.3486 11.0898 19.3333 7.49998 19.3333C3.91014 19.3333 1 16.3486 1 12.6667" stroke="black"/>
<path d="M27 12.6667C27 16.3486 24.0898 19.3333 20.5 19.3333C16.9101 19.3333 14 16.3486 14 12.6667" stroke="black"/>
<path d="M40.0005 12.6667C40.0005 16.3486 37.0903 19.3333 33.5005 19.3333C29.9106 19.3333 27.0005 16.3486 27.0005 12.6667" stroke="black"/>
<path d="M53 12.6667C53 16.3486 50.0898 19.3333 46.5 19.3333C42.9101 19.3333 40 16.3486 40 12.6667" stroke="black"/>
<path d="M38.1429 44.8082V30.6666C38.1429 29.0097 36.7997 27.6666 35.1429 27.6666H27H20.7144C19.0575 27.6666 17.7144 29.0097 17.7144 30.6666V45.9999" stroke="black"/>
<path d="M1 12.6666L8.33208 1H46.2329L52.9999 11.8216H31.2448H12.2944M28.4023 45.9999V31.8333" stroke="black"/>
</svg>
